<?xml version="1.0" encoding="UTF-8" standalone="no"?>
<!-- Created with Inkscape (http://www.inkscape.org/) -->

<svg
   width="60.835823mm"
   height="71.092392mm"
   viewBox="0 0 60.835822 71.092392"
   version="1.1"
   id="svg1"
   xml:space="preserve"
   xmlns:inkscape="http://www.inkscape.org/namespaces/inkscape"
   xmlns:sodipodi="http://sodipodi.sourceforge.net/DTD/sodipodi-0.dtd"
   xmlns="http://www.w3.org/2000/svg"
   xmlns:svg="http://www.w3.org/2000/svg"><sodipodi:namedview
     id="namedview1"
     pagecolor="#505050"
     bordercolor="#eeeeee"
     borderopacity="1"
     inkscape:showpageshadow="0"
     inkscape:pageopacity="0"
     inkscape:pagecheckerboard="0"
     inkscape:deskcolor="#505050"
     inkscape:document-units="mm"><inkscape:page
       x="5.656243e-06"
       y="6.9857396e-07"
       width="60.835819"
       height="71.092392"
       id="page3"
       margin="0"
       bleed="0" /></sodipodi:namedview><defs
     id="defs1"><clipPath
       clipPathUnits="userSpaceOnUse"
       id="clipPath171"><path
         d="M 0,500 H 750 V 0 H 0 Z"
         transform="translate(-105.75441,-210.80861)"
         id="path171" /></clipPath><clipPath
       clipPathUnits="userSpaceOnUse"
       id="clipPath173"><path
         d="M 0,500 H 750 V 0 H 0 Z"
         transform="translate(-162.6367,-31.142601)"
         id="path173" /></clipPath><clipPath
       clipPathUnits="userSpaceOnUse"
       id="clipPath175"><path
         d="M 0,500 H 750 V 0 H 0 Z"
         transform="translate(-123.5625,-148.748)"
         id="path175" /></clipPath><clipPath
       clipPathUnits="userSpaceOnUse"
       id="clipPath177"><path
         d="M 0,500 H 750 V 0 H 0 Z"
         transform="translate(-201.89791,-148.748)"
         id="path177" /></clipPath><clipPath
       clipPathUnits="userSpaceOnUse"
       id="clipPath179"><path
         d="M 0,500 H 750 V 0 H 0 Z"
         transform="translate(-181.3135,-106.61231)"
         id="path179" /></clipPath><clipPath
       clipPathUnits="userSpaceOnUse"
       id="clipPath181"><path
         d="M 0,500 H 750 V 0 H 0 Z"
         transform="translate(-162.6367,-106.92191)"
         id="path181" /></clipPath><clipPath
       clipPathUnits="userSpaceOnUse"
       id="clipPath183"><path
         d="M 0,500 H 750 V 0 H 0 Z"
         transform="translate(-147.2583,-159.3135)"
         id="path183" /></clipPath><clipPath
       clipPathUnits="userSpaceOnUse"
       id="clipPath185"><path
         d="M 0,500 H 750 V 0 H 0 Z"
         transform="translate(-178.2705,-159.3135)"
         id="path185" /></clipPath><clipPath
       clipPathUnits="userSpaceOnUse"
       id="clipPath187"><path
         d="M 0,500 H 750 V 0 H 0 Z"
         transform="translate(-142.20171,-144.4316)"
         id="path187" /></clipPath><clipPath
       clipPathUnits="userSpaceOnUse"
       id="clipPath189"><path
         d="M 0,500 H 750 V 0 H 0 Z"
         transform="translate(-183.3262,-144.4316)"
         id="path189" /></clipPath><clipPath
       clipPathUnits="userSpaceOnUse"
       id="clipPath191"><path
         d="M 0,500 H 750 V 0 H 0 Z"
         transform="translate(-149.0503,-170.4453)"
         id="path191" /></clipPath><clipPath
       clipPathUnits="userSpaceOnUse"
       id="clipPath193"><path
         d="M 0,500 H 750 V 0 H 0 Z"
         transform="translate(-176.2227,-170.4453)"
         id="path193" /></clipPath><clipPath
       clipPathUnits="userSpaceOnUse"
       id="clipPath195"><path
         d="M 0,500 H 750 V 0 H 0 Z"
         transform="translate(-160.48491,-121.9277)"
         id="path195" /></clipPath><clipPath
       clipPathUnits="userSpaceOnUse"
       id="clipPath197"><path
         d="M 0,500 H 750 V 0 H 0 Z"
         transform="translate(-162.2622,-139.8867)"
         id="path197" /></clipPath><clipPath
       clipPathUnits="userSpaceOnUse"
       id="clipPath199"><path
         d="M 0,500 H 750 V 0 H 0 Z"
         transform="translate(-209.60601,-141.7764)"
         id="path199" /></clipPath><clipPath
       clipPathUnits="userSpaceOnUse"
       id="clipPath201"><path
         d="M 0,500 H 750 V 0 H 0 Z"
         transform="translate(-116.65971,-141.7764)"
         id="path201" /></clipPath><clipPath
       clipPathUnits="userSpaceOnUse"
       id="clipPath203"><path
         d="M 0,500 H 750 V 0 H 0 Z"
         transform="translate(-213.28861,-206.4141)"
         id="path203" /></clipPath><clipPath
       clipPathUnits="userSpaceOnUse"
       id="clipPath205"><path
         d="M 0,500 H 750 V 0 H 0 Z"
         transform="translate(-152.4414,-162.75)"
         id="path205" /></clipPath><clipPath
       clipPathUnits="userSpaceOnUse"
       id="clipPath207"><path
         d="M 0,500 H 750 V 0 H 0 Z"
         transform="translate(-190.0684,-162.75)"
         id="path207" /></clipPath><clipPath
       clipPathUnits="userSpaceOnUse"
       id="clipPath209"><path
         d="M 0,500 H 750 V 0 H 0 Z"
         transform="translate(-129.9561,-155.33201)"
         id="path209" /></clipPath><clipPath
       clipPathUnits="userSpaceOnUse"
       id="clipPath211"><path
         d="M 0,500 H 750 V 0 H 0 Z"
         transform="translate(-194.688,-153.4707)"
         id="path211" /></clipPath><clipPath
       clipPathUnits="userSpaceOnUse"
       id="clipPath213"><path
         d="M 0,500 H 750 V 0 H 0 Z"
         transform="translate(-157.4673,-155.2734)"
         id="path213" /></clipPath><clipPath
       clipPathUnits="userSpaceOnUse"
       id="clipPath215"><path
         d="M 0,500 H 750 V 0 H 0 Z"
         transform="translate(-178.16211,-135.1875)"
         id="path215" /></clipPath><clipPath
       clipPathUnits="userSpaceOnUse"
       id="clipPath217"><path
         d="M 0,500 H 750 V 0 H 0 Z"
         transform="translate(-143.52591,-108.6914)"
         id="path217" /></clipPath><clipPath
       clipPathUnits="userSpaceOnUse"
       id="clipPath219"><path
         d="M 0,500 H 750 V 0 H 0 Z"
         transform="translate(-110.87301,-51.686504)"
         id="path219" /></clipPath><clipPath
       clipPathUnits="userSpaceOnUse"
       id="clipPath221"><path
         d="M 0,500 H 750 V 0 H 0 Z"
         transform="translate(-213.09961,-51.686504)"
         id="path221" /></clipPath><clipPath
       clipPathUnits="userSpaceOnUse"
       id="clipPath223"><path
         d="M 0,500 H 750 V 0 H 0 Z"
         transform="translate(-145.08981,-106.37111)"
         id="path223" /></clipPath><clipPath
       clipPathUnits="userSpaceOnUse"
       id="clipPath225"><path
         d="M 0,500 H 750 V 0 H 0 Z"
         transform="translate(-149.16021,-104.9268)"
         id="path225" /></clipPath><clipPath
       clipPathUnits="userSpaceOnUse"
       id="clipPath227"><path
         d="M 0,500 H 750 V 0 H 0 Z"
         transform="translate(-153.42771,-104.1387)"
         id="path227" /></clipPath><clipPath
       clipPathUnits="userSpaceOnUse"
       id="clipPath229"><path
         d="M 0,500 H 750 V 0 H 0 Z"
         transform="translate(-157.8262,-103.3506)"
         id="path229" /></clipPath><clipPath
       clipPathUnits="userSpaceOnUse"
       id="clipPath231"><path
         d="M 0,500 H 750 V 0 H 0 Z"
         transform="translate(-178.6807,-106.3398)"
         id="path231" /></clipPath><clipPath
       clipPathUnits="userSpaceOnUse"
       id="clipPath233"><path
         d="M 0,500 H 750 V 0 H 0 Z"
         transform="translate(-174.61041,-104.8955)"
         id="path233" /></clipPath><clipPath
       clipPathUnits="userSpaceOnUse"
       id="clipPath235"><path
         d="M 0,500 H 750 V 0 H 0 Z"
         transform="translate(-170.3428,-104.1084)"
         id="path235" /></clipPath><clipPath
       clipPathUnits="userSpaceOnUse"
       id="clipPath237"><path
         d="M 0,500 H 750 V 0 H 0 Z"
         transform="translate(-165.94431,-103.3203)"
         id="path237" /></clipPath><clipPath
       clipPathUnits="userSpaceOnUse"
       id="clipPath239"><path
         d="M 0,500 H 750 V 0 H 0 Z"
         transform="translate(-161.9395,-103.335)"
         id="path239" /></clipPath><clipPath
       clipPathUnits="userSpaceOnUse"
       id="clipPath241"><path
         d="M 0,500 H 750 V 0 H 0 Z"
         transform="translate(-135.5293,-210.2451)"
         id="path241" /></clipPath><clipPath
       clipPathUnits="userSpaceOnUse"
       id="clipPath243"><path
         d="M 0,500 H 750 V 0 H 0 Z"
         transform="translate(-141.0864,-214.5801)"
         id="path243" /></clipPath><clipPath
       clipPathUnits="userSpaceOnUse"
       id="clipPath245"><path
         d="M 0,500 H 750 V 0 H 0 Z"
         transform="translate(-144.7075,-219.09081)"
         id="path245" /></clipPath><clipPath
       clipPathUnits="userSpaceOnUse"
       id="clipPath247"><path
         d="M 0,500 H 750 V 0 H 0 Z"
         transform="translate(-131.4487,-201.91991)"
         id="path247" /></clipPath><clipPath
       clipPathUnits="userSpaceOnUse"
       id="clipPath183-5"><path
         d="M 0,500 H 750 V 0 H 0 Z"
         transform="translate(-147.2583,-159.3135)"
         id="path183-4" /></clipPath></defs><g
     id="layer-MC1"
     inkscape:groupmode="layer"
     inkscape:label="OBJECTS"
     transform="matrix(0.26458333,0,0,0.26458334,129.99462,-88.707768)"><path
       id="path216"
       d="m 0,0 c -0.507,0.218 -1.809,0.199 -1.808,-0.718 0.002,-0.992 0.93,-4.406 0.265,-6.928 -0.702,-2.663 -1.881,-4.851 -0.522,-5.379 6.253,-2.43 13.065,-3.715 19.91,-3.853 7.675,-0.156 15.389,1.128 22.402,3.853 1.359,0.528 0.179,2.716 -0.522,5.379 -0.665,2.522 0.263,5.936 0.265,6.928 C 39.991,0.199 38.689,0.218 38.182,0 25.979,-5.229 12.203,-5.229 0,0"
       style="display:none;fill:#67627e;fill-opacity:1;fill-rule:evenodd;stroke:none"
       transform="matrix(1.3333333,0,0,-1.3333333,-401.8336,499.58123)"
       clip-path="url(#clipPath217)" /><g
       id="g2"><path
         id="path170"
         d="m 0,0 h 113.764 c 16.139,0 29.342,-13.204 29.342,-29.342 v -113.764 c 0,-16.138 -13.203,-29.341 -29.342,-29.341 H 0 c -16.138,0 -29.342,13.203 -29.342,29.341 V -29.342 C -29.342,-13.204 -16.138,0 0,0"
         style="fill:#ff0092;fill-opacity:1;fill-rule:evenodd;stroke:none"
         transform="matrix(1.3333333,0,0,-1.3333333,-452.1956,363.42496)"
         clip-path="url(#clipPath171)"
         inkscape:export-filename="profile.svg"
         inkscape:export-xdpi="96"
         inkscape:export-ydpi="96" /><path
         id="path172"
         d="m 0,0 h -70.984 c -0.822,36.297 27.106,57.369 51.086,65.232 1.945,10.127 1.448,23.262 1.448,23.262 H 0 18.45 c 0,0 -0.497,-13.135 1.448,-23.262 C 43.878,57.369 71.805,36.297 70.984,0 Z"
         style="fill:#222222;fill-opacity:1;fill-rule:evenodd;stroke:none"
         transform="matrix(1.3333333,0,0,-1.3333333,-376.35254,602.97963)"
         clip-path="url(#clipPath173)" /><path
         id="path174"
         d="m 0,0 c -0.172,1.898 -7.936,4.141 -10.523,-2.069 -2.587,-6.21 2.07,-15.008 10.868,-15.699 8.797,-0.69 6.21,0.863 6.21,0.863 z"
         style="fill:#cc834b;fill-opacity:1;fill-rule:evenodd;stroke:none"
         transform="matrix(1.3333333,0,0,-1.3333333,-428.45147,446.17243)"
         clip-path="url(#clipPath175)" /><path
         id="path176"
         d="m 0,0 c 0.172,1.898 7.935,4.141 10.522,-2.069 2.588,-6.21 -2.069,-15.008 -10.867,-15.699 -8.798,-0.69 -6.211,0.863 -6.211,0.863 z"
         style="fill:#cc834b;fill-opacity:1;fill-rule:evenodd;stroke:none"
         transform="matrix(1.3333333,0,0,-1.3333333,-324.00427,446.17243)"
         clip-path="url(#clipPath177)" /><path
         id="path178"
         d="m 0,0 c -7.987,-15.279 -28.56,-16.873 -37.393,-0.588 0.232,3.33 0.307,6.466 0.321,8.886 h 36.79 C -0.27,6.021 -0.201,3.11 0,0"
         style="fill:#bc7035;fill-opacity:1;fill-rule:evenodd;stroke:none"
         transform="matrix(1.3333333,0,0,-1.3333333,-351.45014,502.35336)"
         clip-path="url(#clipPath179)" /><path
         id="path180"
         d="M 0,0 C -45.773,-1.101 -68.884,111.776 0,108.885 68.884,111.776 45.773,-1.101 0,0"
         style="display:inline;fill:#cc834b;fill-opacity:1;fill-rule:evenodd;stroke:none"
         transform="matrix(1.3333333,0,0,-1.3333333,-376.35254,501.94056)"
         clip-path="url(#clipPath181)" /><path
         id="path182"
         d="m 0,0 c 1.837,-1.326 2.25,-3.888 0.922,-5.721 -1.33,-1.834 -3.896,-2.246 -5.734,-0.921 -1.838,1.327 -2.25,3.888 -0.921,5.722 C -4.405,0.914 -1.838,1.325 0,0"
         style="display:inline;fill:#20201e;fill-opacity:1;fill-rule:evenodd;stroke:none"
         transform="matrix(1.3333333,0,0,-1.3333333,-396.85707,432.0851)"
         clip-path="url(#clipPath183)" /><path
         id="path182-0"
         d="m 0,0 c 1.837,-1.326 2.25,-3.888 0.922,-5.721 -1.33,-1.834 -3.896,-2.246 -5.734,-0.921 -1.838,1.327 -2.25,3.888 -0.921,5.722 C -4.405,0.914 -1.838,1.325 0,0"
         style="display:inline;fill:#20201e;fill-opacity:1;fill-rule:evenodd;stroke:none"
         transform="matrix(0.27595977,0,0,-0.28291614,-369.75709,461.06561)"
         clip-path="url(#clipPath183-5)" /><path
         id="path184"
         d="m 0,0 c -1.838,-1.326 -2.251,-3.888 -0.922,-5.721 1.328,-1.834 3.895,-2.246 5.734,-0.921 1.836,1.327 2.25,3.888 0.921,5.722 C 4.404,0.914 1.837,1.325 0,0"
         style="display:inline;fill:#20201e;fill-opacity:1;fill-rule:evenodd;stroke:none"
         transform="matrix(1.3333333,0,0,-1.3333333,-355.50747,432.0851)"
         clip-path="url(#clipPath185)" /><path
         id="path186"
         d="m 0,0 c 2.336,-1.794 2.439,-4.421 0.229,-5.867 -2.21,-1.446 -5.896,-1.165 -8.233,0.629 -2.336,1.793 -2.438,4.42 -0.228,5.866 C -6.022,2.074 -2.336,1.793 0,0"
         style="display:none;fill:#da9077;fill-opacity:1;fill-rule:evenodd;stroke:none"
         transform="matrix(1.3333333,0,0,-1.3333333,-403.5992,451.92763)"
         clip-path="url(#clipPath187)" /><path
         id="path188"
         d="m 0,0 c -2.336,-1.794 -2.438,-4.421 -0.228,-5.867 2.21,-1.446 5.896,-1.165 8.233,0.629 2.336,1.793 2.438,4.42 0.228,5.866 C 6.023,2.074 2.337,1.793 0,0"
         style="display:none;fill:#da9077;fill-opacity:1;fill-rule:evenodd;stroke:none"
         transform="matrix(1.3333333,0,0,-1.3333333,-348.76654,451.92763)"
         clip-path="url(#clipPath189)" /><path
         id="path190"
         d="m 0,0 c -0.152,0.067 -0.305,0.129 -0.461,0.189 -1.789,0.645 -3.306,0.82 -5.238,0.68 -1.892,-0.2 -3.305,-0.628 -4.891,-1.533 -0.741,-0.477 -3.631,-2.816 -2.811,-3.68 0.334,-0.092 3.213,1.379 4.059,1.654 1.315,0.388 2.382,0.537 3.775,0.507 1.299,-0.058 2.277,-0.247 3.461,-0.704 0.032,-0.006 0.246,-0.102 0.292,-0.122 C 0.6,-4.183 0.381,-4.937 2.028,-3.808 4.564,-2.459 1.954,-1.015 0,0"
         style="display:inline;fill:#0d0009;fill-opacity:1;fill-rule:evenodd;stroke:none"
         transform="matrix(1.3333333,0,0,-1.3333333,-394.46774,417.2427)"
         clip-path="url(#clipPath191)" /><path
         id="path192"
         d="m 0,0 c 0.153,0.067 0.305,0.129 0.461,0.189 1.789,0.645 3.306,0.82 5.239,0.68 1.891,-0.2 3.304,-0.628 4.891,-1.533 0.74,-0.477 3.63,-2.816 2.81,-3.68 C 13.067,-4.436 10.188,-2.965 9.343,-2.69 8.027,-2.302 6.96,-2.153 5.567,-2.183 4.268,-2.241 3.291,-2.43 2.106,-2.887 2.074,-2.893 1.86,-2.989 1.814,-3.009 -0.6,-4.183 -0.381,-4.937 -2.028,-3.808 -4.563,-2.459 -1.954,-1.015 0,0"
         style="display:inline;fill:#0d0009;fill-opacity:1;fill-rule:evenodd;stroke:none"
         transform="matrix(1.3333333,0,0,-1.3333333,-358.23787,417.2427)"
         clip-path="url(#clipPath193)" /><path
         id="path194"
         d="m 0,0 c -0.235,0.138 -0.314,0.44 -0.176,0.676 0.138,0.235 0.441,0.314 0.676,0.177 0.683,-0.4 1.552,-0.6 2.422,-0.6 0.869,0 1.723,0.199 2.377,0.596 C 5.532,0.99 5.836,0.915 5.978,0.682 6.119,0.449 6.044,0.145 5.811,0.003 4.995,-0.492 3.958,-0.739 2.922,-0.739 1.888,-0.739 0.841,-0.493 0,0"
         style="display:none;fill:#d67f54;fill-opacity:1;fill-rule:evenodd;stroke:none"
         transform="matrix(1.3333333,0,0,-1.3333333,-379.2216,481.93283)"
         clip-path="url(#clipPath195)" /><path
         id="path196"
         d="m 0,0 c -0.273,0 -0.496,0.222 -0.496,0.496 0,0.274 0.223,0.496 0.496,0.496 1.191,0 2.615,0.011 3.713,0.197 0.905,0.154 1.569,0.399 1.569,0.81 0,1.428 -1.447,10.303 -1.451,10.328 -0.042,0.27 0.142,0.524 0.412,0.567 0.269,0.042 0.523,-0.141 0.566,-0.412 C 4.812,12.456 6.274,3.488 6.274,1.999 6.274,0.954 5.258,0.447 3.876,0.213 2.692,0.012 1.226,0 0,0"
         style="display:inline;fill:#a36041;fill-opacity:1;fill-rule:evenodd;stroke:none"
         transform="matrix(1.3333333,0,0,-1.3333333,-376.85187,457.9875)"
         clip-path="url(#clipPath197)" /><path
         id="path198"
         d="m 0,0 c 0,-0.273 -0.222,-0.496 -0.496,-0.496 -0.275,0 -0.497,0.223 -0.497,0.496 0,1.508 -0.26,2.455 -0.679,2.971 C -1.924,3.28 -2.243,3.423 -2.595,3.431 -3.001,3.44 -3.465,3.288 -3.947,3.015 -5.25,2.277 -6.597,0.713 -7.342,-0.991 -7.701,-1.812 -8.01,-2.655 -8.188,-3.293 c 0.762,0.53 1.603,0.741 2.312,0.67 0.403,-0.041 0.771,-0.171 1.069,-0.386 0.314,-0.226 0.549,-0.541 0.667,-0.935 0.203,-0.681 0.046,-1.595 -0.685,-2.686 -0.152,-0.226 -0.459,-0.288 -0.686,-0.136 -0.227,0.152 -0.288,0.459 -0.136,0.687 0.546,0.814 0.681,1.434 0.557,1.851 -0.053,0.177 -0.156,0.317 -0.295,0.416 -0.155,0.112 -0.358,0.181 -0.588,0.205 -0.637,0.063 -1.444,-0.215 -2.116,-0.891 -0.18,-0.181 -0.349,-0.283 -0.505,-0.316 -0.398,-0.086 -0.63,0.088 -0.716,0.479 l -0.005,0.026 c -0.03,0.147 -0.023,0.345 0.014,0.58 0.112,0.706 0.536,1.954 1.051,3.133 0.828,1.891 2.342,3.638 3.815,4.472 0.632,0.357 1.268,0.558 1.859,0.544 C -1.932,4.404 -1.355,4.15 -0.905,3.595 -0.347,2.909 0,1.753 0,0"
         style="display:inline;fill:#a36041;fill-opacity:1;fill-rule:evenodd;stroke:none"
         transform="matrix(1.3333333,0,0,-1.3333333,-313.7268,455.4679)"
         clip-path="url(#clipPath199)" /><path
         id="path200"
         d="m 0,0 c 0,-0.273 -0.222,-0.496 -0.496,-0.496 -0.274,0 -0.496,0.223 -0.496,0.496 0,1.753 0.346,2.909 0.904,3.595 C 0.364,4.15 0.94,4.404 1.583,4.42 2.175,4.434 2.811,4.233 3.443,3.876 4.916,3.042 6.43,1.295 7.257,-0.596 7.772,-1.775 8.197,-3.023 8.309,-3.729 8.346,-3.964 8.353,-4.162 8.323,-4.309 L 8.317,-4.335 C 8.231,-4.725 8,-4.9 7.601,-4.814 7.446,-4.781 7.277,-4.679 7.097,-4.498 6.425,-3.822 5.619,-3.544 4.981,-3.607 4.75,-3.631 4.547,-3.7 4.392,-3.812 4.253,-3.911 4.15,-4.051 4.098,-4.228 3.973,-4.645 4.108,-5.265 4.654,-6.079 4.807,-6.307 4.746,-6.614 4.519,-6.766 4.292,-6.918 3.985,-6.856 3.832,-6.63 c -0.73,1.091 -0.888,2.005 -0.684,2.686 0.118,0.394 0.352,0.709 0.666,0.935 0.299,0.215 0.666,0.345 1.07,0.386 0.709,0.071 1.55,-0.14 2.311,-0.67 C 7.018,-2.655 6.708,-1.812 6.35,-0.991 5.605,0.713 4.257,2.277 2.954,3.015 2.473,3.288 2.009,3.44 1.603,3.431 1.25,3.423 0.932,3.28 0.68,2.971 0.261,2.455 0,1.508 0,0"
         style="display:inline;fill:#a36041;fill-opacity:1;fill-rule:evenodd;stroke:none"
         transform="matrix(1.3333333,0,0,-1.3333333,-437.6552,455.4679)"
         clip-path="url(#clipPath201)" /><path
         id="path202"
         d="m 0,0 c 1.907,-0.365 1.658,-1.932 -3.906,-5.859 5.142,-6.48 5.932,-16.774 4.176,-26.431 -0.375,-2.062 -6.178,-16.676 -11.645,-26.25 -0.508,-0.889 1.297707,19.960805 -4.442293,27.898805 -2.913,4.027 -7.025158,14.423376 -12.957158,18.401376 -0.06,-1.13 -1.668475,-5.436256 -2.984475,-6.056256 -8.086639,5.940339 -12.842269,8.267114 -28.430962,10.2927907 1.883,-1.939 1.116037,-14.3453017 0.395037,-15.0533017 -5.919767,3.0437 -8.551337,5.274444 -14.538149,4.212586 -2.132,-7.035 -4.165195,-9.615977 -7.546195,-11.605977 -9.052,-5.326 -6.083805,-32.707023 -8.459805,-29.402023 -10.898,15.159 -8.15,34.787 -8.15,34.787 -1.056,-1.675 -2.258,-3.117 -3.09,-4.848 -1.503,-3.128 -2.532,25.642 11.143,29.373 0,0 -2.157,0.745 -7.706,-0.295 -2.036,-0.383 4.003,5.231 10.517,5.96 0.187,2.833 1.452,14.204 9.767,17.873 3.857,1.702 10.176,2.858 9.374,2.372 -3.964,-2.401 -5.103,-5.74 -5.103,-5.74 C -43.16,33.983 -29.319,18.725 -17.394,9.16 -13.788,6.268 -6.155,0.481 0,0"
         style="display:inline;fill:#0d0009;fill-opacity:1;fill-rule:evenodd;stroke:none"
         transform="matrix(1.3333333,0,0,-1.3333333,-308.81667,369.2843)"
         clip-path="url(#clipPath203)"
         sodipodi:nodetypes="ccsccccccccscccccccccc" /><path
         id="path204"
         d="m 0,0 c -2.206,2.206 -5.253,3.57 -8.618,3.57 -3.365,0 -6.413,-1.364 -8.619,-3.57 -2.204,-2.205 -3.57,-5.253 -3.57,-8.618 0,-3.365 1.366,-6.412 3.57,-8.618 2.206,-2.205 5.254,-3.57 8.619,-3.57 3.365,0 6.412,1.365 8.618,3.57 2.206,2.206 3.57,5.253 3.57,8.618 C 3.57,-5.253 2.206,-2.205 0,0 m -8.618,6.052 c 4.051,0 7.718,-1.643 10.372,-4.298 2.655,-2.653 4.298,-6.321 4.298,-10.372 0,-4.05 -1.643,-7.718 -4.298,-10.372 -2.654,-2.655 -6.321,-4.297 -10.372,-4.297 -4.05,0 -7.718,1.642 -10.373,4.297 -2.654,2.654 -4.297,6.322 -4.297,10.372 0,4.051 1.643,7.719 4.297,10.372 2.655,2.655 6.323,4.298 10.373,4.298"
         style="display:none;fill:#2e1e11;fill-opacity:1;fill-rule:evenodd;stroke:none"
         transform="matrix(1.3333333,0,0,-1.3333333,-389.94627,427.5031)"
         clip-path="url(#clipPath205)" /><path
         id="path206"
         d="m 0,0 c -2.206,2.206 -5.253,3.57 -8.618,3.57 -3.366,0 -6.413,-1.364 -8.618,-3.57 -2.206,-2.205 -3.57,-5.253 -3.57,-8.618 0,-3.365 1.364,-6.412 3.57,-8.618 2.205,-2.205 5.252,-3.57 8.618,-3.57 3.365,0 6.412,1.365 8.618,3.57 2.205,2.206 3.57,5.253 3.57,8.618 C 3.57,-5.253 2.205,-2.205 0,0 m -8.618,6.052 c 4.05,0 7.718,-1.643 10.372,-4.298 2.655,-2.653 4.297,-6.321 4.297,-10.372 0,-4.05 -1.642,-7.718 -4.297,-10.372 -2.654,-2.655 -6.322,-4.297 -10.372,-4.297 -4.051,0 -7.718,1.642 -10.373,4.297 -2.655,2.654 -4.297,6.322 -4.297,10.372 0,4.051 1.642,7.719 4.297,10.372 2.655,2.655 6.322,4.298 10.373,4.298"
         style="display:none;fill:#2e1e11;fill-opacity:1;fill-rule:evenodd;stroke:none"
         transform="matrix(1.3333333,0,0,-1.3333333,-339.77694,427.5031)"
         clip-path="url(#clipPath207)" /><path
         id="path208"
         d="M 0,0 C 0.513,0.185 1.08,-0.083 1.264,-0.598 1.448,-1.11 1.181,-1.677 0.667,-1.861 L -8.07,-5.009 c -0.514,-0.183 -1.079,0.084 -1.264,0.599 -0.184,0.513 0.083,1.079 0.597,1.264 z"
         style="display:none;fill:#2e1e11;fill-opacity:1;fill-rule:evenodd;stroke:none"
         transform="matrix(1.3333333,0,0,-1.3333333,-419.92667,437.39376)"
         clip-path="url(#clipPath209)" /><path
         id="path210"
         d="m 0,0 c -0.514,0.185 -0.781,0.751 -0.597,1.264 0.184,0.514 0.75,0.782 1.264,0.597 L 9.404,-1.285 C 9.918,-1.47 10.185,-2.036 10.001,-2.549 9.817,-3.063 9.25,-3.331 8.737,-3.147 Z"
         style="display:none;fill:#2e1e11;fill-opacity:1;fill-rule:evenodd;stroke:none"
         transform="matrix(1.3333333,0,0,-1.3333333,-333.61747,439.8755)"
         clip-path="url(#clipPath211)" /><path
         id="path212"
         d="m 0,0 c -0.285,-0.467 -0.895,-0.614 -1.361,-0.329 -0.467,0.285 -0.614,0.893 -0.329,1.36 0.004,0.008 1.682,2.856 6.859,2.856 5.178,0 6.855,-2.848 6.86,-2.856 0.284,-0.467 0.138,-1.075 -0.33,-1.36 C 11.233,-0.614 10.624,-0.467 10.338,0 10.336,0.006 9.225,1.901 5.169,1.901 1.114,1.901 0.002,0.006 0,0"
         style="display:none;fill:#2e1e11;fill-opacity:1;fill-rule:evenodd;stroke:none"
         transform="matrix(1.3333333,0,0,-1.3333333,-383.24507,437.4719)"
         clip-path="url(#clipPath213)" /><path
         id="path214"
         d="M 0,0 C -6.232,-2.313 -25.171,-2.267 -31.051,-0.279 -27.802,-12.117 -3.159,-11.93 0,0"
         style="display:inline;fill:#ffffff;fill-opacity:1;fill-rule:evenodd;stroke:none"
         transform="matrix(1.3333333,0,0,-1.3333333,-355.652,464.2531)"
         clip-path="url(#clipPath215)" /><path
         id="path218"
         d="M 0,0 C 0.003,0.41 0.338,0.739 0.748,0.736 1.157,0.732 1.486,0.398 1.483,-0.012 L 1.301,-20.55 c -0.004,-0.41 -0.338,-0.739 -0.748,-0.736 -0.409,0.003 -0.738,0.338 -0.736,0.747 z"
         style="display:inline;fill:#111111;fill-opacity:1;fill-rule:evenodd;stroke:none"
         transform="matrix(1.3333333,0,0,-1.3333333,-445.3708,575.58776)"
         clip-path="url(#clipPath219)" /><path
         id="path220"
         d="M 0,0 C 0.003,0.41 0.338,0.739 0.747,0.736 1.157,0.732 1.486,0.398 1.483,-0.012 L 1.3,-20.55 c -0.003,-0.41 -0.338,-0.739 -0.747,-0.736 -0.409,0.003 -0.739,0.338 -0.736,0.747 z"
         style="display:inline;fill:#111111;fill-opacity:1;fill-rule:evenodd;stroke:none"
         transform="matrix(1.3333333,0,0,-1.3333333,-309.06867,575.58776)"
         clip-path="url(#clipPath221)" /><path
         id="path222"
         d="M 0,0 C 0.009,0.272 0.237,0.487 0.509,0.479 0.783,0.47 0.997,0.242 0.988,-0.031 0.966,-0.707 0.959,-1.342 0.952,-1.982 0.937,-3.294 0.922,-4.627 0.791,-6.193 c -0.207,-2.484 -1.54,-4.553 -1.544,-4.558 -0.146,-0.23 -0.452,-0.299 -0.683,-0.151 -0.229,0.146 -0.297,0.452 -0.15,0.682 0.003,0.005 1.202,1.865 1.389,4.108 0.132,1.579 0.146,2.868 0.161,4.137 C -0.029,-1.316 -0.021,-0.663 0,0"
         style="display:none;fill:#58556c;fill-opacity:1;fill-rule:evenodd;stroke:none"
         transform="matrix(1.3333333,0,0,-1.3333333,-399.7484,502.67496)"
         clip-path="url(#clipPath223)" /><path
         id="path224"
         d="M 0,0 C 0.009,0.272 0.237,0.487 0.51,0.479 0.783,0.47 0.997,0.242 0.988,-0.031 0.966,-0.707 0.959,-1.342 0.952,-1.982 0.937,-3.294 0.922,-4.627 0.792,-6.193 c -0.207,-2.484 -1.541,-4.552 -1.545,-4.558 -0.146,-0.23 -0.452,-0.299 -0.683,-0.151 -0.229,0.147 -0.297,0.452 -0.15,0.682 0.003,0.005 1.202,1.866 1.389,4.108 0.132,1.579 0.146,2.868 0.161,4.137 C -0.029,-1.316 -0.021,-0.663 0,0"
         style="display:none;fill:#58556c;fill-opacity:1;fill-rule:evenodd;stroke:none"
         transform="matrix(1.3333333,0,0,-1.3333333,-394.3212,504.6007)"
         clip-path="url(#clipPath225)" /><path
         id="path226"
         d="M 0,0 C 0.009,0.273 0.236,0.487 0.509,0.479 0.783,0.47 0.997,0.241 0.988,-0.03 0.966,-0.706 0.959,-1.342 0.952,-1.981 0.937,-3.293 0.922,-4.626 0.791,-6.193 c -0.207,-2.484 -1.54,-4.552 -1.544,-4.558 -0.146,-0.229 -0.452,-0.298 -0.683,-0.151 -0.23,0.147 -0.297,0.452 -0.15,0.681 0.003,0.006 1.202,1.867 1.389,4.11 0.131,1.578 0.146,2.868 0.16,4.136 C -0.03,-1.316 -0.021,-0.663 0,0"
         style="display:none;fill:#58556c;fill-opacity:1;fill-rule:evenodd;stroke:none"
         transform="matrix(1.3333333,0,0,-1.3333333,-388.6312,505.6515)"
         clip-path="url(#clipPath227)" /><path
         id="path228"
         d="M 0,0 C 0.009,0.273 0.237,0.488 0.509,0.479 0.783,0.47 0.997,0.242 0.988,-0.03 0.966,-0.706 0.959,-1.342 0.952,-1.981 0.937,-3.293 0.922,-4.626 0.791,-6.192 c -0.206,-2.485 -1.54,-4.552 -1.544,-4.559 -0.146,-0.229 -0.452,-0.298 -0.683,-0.15 -0.229,0.146 -0.297,0.451 -0.15,0.681 0.003,0.005 1.202,1.866 1.389,4.109 0.132,1.578 0.146,2.868 0.161,4.137 C -0.029,-1.316 -0.021,-0.663 0,0"
         style="display:none;fill:#58556c;fill-opacity:1;fill-rule:evenodd;stroke:none"
         transform="matrix(1.3333333,0,0,-1.3333333,-382.76654,506.7023)"
         clip-path="url(#clipPath229)" /></g><path
       id="path230"
       d="m 0,0 c -0.008,0.273 0.206,0.501 0.479,0.51 0.273,0.009 0.501,-0.206 0.51,-0.479 0.022,-0.663 0.029,-1.316 0.036,-1.974 0.015,-1.27 0.03,-2.559 0.161,-4.138 0.187,-2.243 1.385,-4.103 1.389,-4.107 0.147,-0.231 0.078,-0.537 -0.151,-0.683 -0.23,-0.148 -0.536,-0.079 -0.683,0.151 -0.003,0.005 -1.338,2.074 -1.544,4.558 -0.13,1.566 -0.146,2.899 -0.16,4.211 C 0.029,-1.311 0.022,-0.676 0,0"
       style="display:none;fill:#58556c;fill-opacity:1;fill-rule:evenodd;stroke:none"
       transform="matrix(1.3333333,0,0,-1.3333333,-354.96054,502.7167)"
       clip-path="url(#clipPath231)" /><path
       id="path232"
       d="m 0,0 c -0.008,0.273 0.206,0.501 0.479,0.51 0.273,0.009 0.501,-0.206 0.51,-0.479 0.022,-0.663 0.029,-1.316 0.036,-1.974 0.015,-1.27 0.03,-2.559 0.161,-4.138 0.187,-2.242 1.385,-4.103 1.389,-4.107 0.147,-0.231 0.078,-0.536 -0.151,-0.683 -0.23,-0.148 -0.537,-0.079 -0.683,0.151 -0.003,0.006 -1.338,2.074 -1.544,4.558 -0.131,1.566 -0.146,2.899 -0.16,4.211 C 0.029,-1.311 0.022,-0.676 0,0"
       style="display:none;fill:#58556c;fill-opacity:1;fill-rule:evenodd;stroke:none"
       transform="matrix(1.3333333,0,0,-1.3333333,-360.3876,504.64243)"
       clip-path="url(#clipPath233)" /><path
       id="path234"
       d="M 0,0 C -0.008,0.271 0.206,0.5 0.479,0.509 0.752,0.518 0.98,0.304 0.989,0.03 c 0.022,-0.663 0.029,-1.316 0.036,-1.974 0.015,-1.269 0.03,-2.559 0.161,-4.137 0.187,-2.243 1.386,-4.104 1.389,-4.109 0.147,-0.23 0.079,-0.535 -0.151,-0.682 -0.23,-0.147 -0.536,-0.078 -0.683,0.151 -0.003,0.006 -1.337,2.075 -1.544,4.558 -0.13,1.567 -0.145,2.9 -0.16,4.212 C 0.03,-1.312 0.022,-0.676 0,0"
       style="display:none;fill:#58556c;fill-opacity:1;fill-rule:evenodd;stroke:none"
       transform="matrix(1.3333333,0,0,-1.3333333,-366.07774,505.6919)"
       clip-path="url(#clipPath235)" /><path
       id="path236"
       d="m 0,0 c -0.008,0.272 0.206,0.5 0.479,0.51 0.273,0.009 0.501,-0.206 0.51,-0.48 0.022,-0.663 0.029,-1.316 0.036,-1.973 0.015,-1.27 0.03,-2.56 0.161,-4.138 0.187,-2.243 1.385,-4.104 1.389,-4.108 0.147,-0.231 0.078,-0.536 -0.151,-0.682 -0.23,-0.148 -0.536,-0.079 -0.683,0.15 -0.003,0.007 -1.338,2.075 -1.544,4.559 -0.13,1.566 -0.146,2.899 -0.16,4.211 C 0.029,-1.312 0.022,-0.676 0,0"
       style="display:none;fill:#58556c;fill-opacity:1;fill-rule:evenodd;stroke:none"
       transform="matrix(1.3333333,0,0,-1.3333333,-371.9424,506.7427)"
       clip-path="url(#clipPath237)" /><path
       id="path238"
       d="M 0,0 C 0,0.273 0.222,0.495 0.495,0.495 0.768,0.495 0.989,0.273 0.989,0 l 0.022,-10.47 c 0,-0.272 -0.221,-0.494 -0.494,-0.494 -0.273,0 -0.494,0.222 -0.494,0.494 z"
       style="display:none;fill:#58556c;fill-opacity:1;fill-rule:evenodd;stroke:none"
       transform="matrix(1.3333333,0,0,-1.3333333,-377.28214,506.7231)"
       clip-path="url(#clipPath239)" /><path
       id="path240"
       d="m 0,0 c -0.129,0.241 -0.039,0.541 0.202,0.671 0.24,0.13 0.542,0.039 0.671,-0.201 2.726,-5.056 8.39,-9.503 14.919,-13.046 8.33,-4.519 18.04,-7.547 24.891,-8.495 0.271,-0.037 0.46,-0.287 0.422,-0.558 -0.037,-0.27 -0.287,-0.46 -0.558,-0.423 -6.953,0.962 -16.797,4.03 -25.228,8.604 C 8.639,-9.825 2.829,-5.246 0,0"
       style="display:none;fill:#432d4c;fill-opacity:1;fill-rule:evenodd;stroke:none"
       transform="matrix(1.3333333,0,0,-1.3333333,-412.49574,364.1763)"
       clip-path="url(#clipPath241)" /><path
       id="path242"
       d="m 0,0 c -0.274,0 -0.496,0.222 -0.496,0.495 0,0.275 0.222,0.496 0.496,0.496 7.978,0 15.407,-1.383 22.177,-3.633 7.975,-2.649 15.026,-6.499 20.976,-10.702 6.27,-4.429 11.33,-9.431 14.972,-15.496 3.643,-6.066 5.861,-13.183 6.445,-21.84 0.018,-0.272 -0.189,-0.509 -0.462,-0.527 -0.273,-0.018 -0.509,0.188 -0.527,0.461 -0.573,8.492 -2.742,15.466 -6.305,21.398 -3.565,5.935 -8.53,10.841 -14.693,15.194 C 36.7,-9.998 29.734,-6.194 21.867,-3.58 15.198,-1.364 7.874,0 0,0"
       style="display:none;fill:#432d4c;fill-opacity:1;fill-rule:evenodd;stroke:none"
       transform="matrix(1.3333333,0,0,-1.3333333,-405.08627,358.3963)"
       clip-path="url(#clipPath243)" /><path
       id="path244"
       d="m 0,0 c -0.248,-0.115 -0.543,-0.007 -0.657,0.242 -0.114,0.247 -0.006,0.542 0.242,0.656 20.355,9.376 33.608,0.045 45.038,-8.002 2.824,-1.989 5.536,-3.898 8.197,-5.41 0.239,-0.134 0.322,-0.436 0.186,-0.674 -0.134,-0.238 -0.436,-0.322 -0.674,-0.186 -2.712,1.539 -5.439,3.46 -8.28,5.46 C 32.839,-0.02 19.836,9.136 0,0"
       style="display:none;fill:#432d4c;fill-opacity:1;fill-rule:evenodd;stroke:none"
       transform="matrix(1.3333333,0,0,-1.3333333,-400.25814,352.38203)"
       clip-path="url(#clipPath245)" /><path
       id="path246"
       d="m 0,0 c -0.014,0.273 0.196,0.506 0.469,0.52 0.273,0.013 0.506,-0.197 0.52,-0.469 0.143,-2.662 -0.614,-6.447 -1.918,-10.187 -1.262,-3.619 -3.039,-7.21 -5.008,-9.709 -3.83,-4.859 -3.889,-10.844 -3.889,-10.862 -0.004,-0.273 -0.23,-0.491 -0.502,-0.486 -0.273,0.004 -0.491,0.228 -0.486,0.502 0,0.017 0.062,6.338 4.097,11.459 1.903,2.414 3.626,5.9 4.854,9.422 1.264,3.626 2,7.273 1.863,9.81"
       style="display:none;fill:#432d4c;fill-opacity:1;fill-rule:evenodd;stroke:none"
       transform="matrix(1.3333333,0,0,-1.3333333,-417.93654,375.27656)"
       clip-path="url(#clipPath247)" /></g></svg>
